<svg width="104" height="104" viewBox="0 0 104 104" fill="none" xmlns="http://www.w3.org/2000/svg">
<circle cx="52" cy="52" r="52" fill="#4529E6"/>
<path d="M48.1562 45.696C48.0199 44.4858 47.4574 43.5483 46.4688 42.8835C45.4801 42.2102 44.2358 41.8736 42.7358 41.8736C41.6619 41.8736 40.733 42.044 39.9489 42.3849C39.1648 42.7173 38.5554 43.1776 38.1207 43.7656C37.6946 44.3452 37.4815 45.0057 37.4815 45.7472C37.4815 46.3693 37.6264 46.9062 37.9162 47.358C38.2145 47.8097 38.6023 48.1889 39.0795 48.4957C39.5653 48.794 40.0852 49.0455 40.6392 49.25C41.1932 49.446 41.7259 49.608 42.2372 49.7358L44.794 50.4006C45.6293 50.6051 46.4858 50.8821 47.3636 51.2315C48.2415 51.581 49.0554 52.0412 49.8054 52.6122C50.5554 53.1832 51.1605 53.8906 51.6207 54.7344C52.0895 55.5781 52.3239 56.5881 52.3239 57.7642C52.3239 59.2472 51.9403 60.5639 51.1733 61.7145C50.4148 62.8651 49.3111 63.7727 47.8622 64.4375C46.4219 65.1023 44.679 65.4347 42.6335 65.4347C40.6733 65.4347 38.9773 65.1236 37.5455 64.5014C36.1136 63.8793 34.9929 62.9972 34.1832 61.8551C33.3736 60.7045 32.9261 59.3409 32.8409 57.7642H36.804C36.8807 58.7102 37.1875 59.4986 37.7244 60.1293C38.2699 60.7514 38.9645 61.2159 39.8082 61.5227C40.6605 61.821 41.5938 61.9702 42.608 61.9702C43.7244 61.9702 44.7173 61.7955 45.5866 61.446C46.4645 61.0881 47.1548 60.5937 47.6577 59.9631C48.1605 59.3239 48.4119 58.5781 48.4119 57.7259C48.4119 56.9503 48.1903 56.3153 47.7472 55.821C47.3125 55.3267 46.7202 54.9176 45.9702 54.5938C45.2287 54.2699 44.3892 53.9844 43.4517 53.7372L40.358 52.8935C38.2614 52.3224 36.5994 51.483 35.3722 50.375C34.1534 49.267 33.544 47.8011 33.544 45.9773C33.544 44.4687 33.9531 43.152 34.7713 42.027C35.5895 40.902 36.6974 40.0284 38.0952 39.4062C39.4929 38.7756 41.0696 38.4602 42.8253 38.4602C44.598 38.4602 46.1619 38.7713 47.517 39.3935C48.8807 40.0156 49.9545 40.8722 50.7386 41.9631C51.5227 43.0455 51.9318 44.2898 51.9659 45.696H48.1562ZM57.0444 65V38.8182H60.9947V61.5994H72.8583V65H57.0444Z" fill="white"/>
</svg>
