<svg width="263" height="12" viewBox="0 0 263 12" fill="none" xmlns="http://www.w3.org/2000/svg">
<path d="M3.01172 5.90909C3.01172 5.36553 3.14429 4.87003 3.40945 4.42259C3.6746 3.97514 4.03089 3.61884 4.47834 3.35369C4.92578 3.08854 5.42128 2.95597 5.96484 2.95597C6.43549 2.95597 6.86967 3.05705 7.2674 3.25923C7.66844 3.46141 7.99988 3.73816 8.26172 4.08949C8.52356 4.4375 8.68596 4.83191 8.74894 5.27273H7.54581C7.47952 4.93134 7.29557 4.65294 6.99396 4.4375C6.69235 4.21875 6.34931 4.10938 5.96484 4.10938C5.6334 4.10938 5.33179 4.19058 5.06001 4.35298C4.78823 4.51539 4.57114 4.73248 4.40874 5.00426C4.24633 5.27604 4.16513 5.57765 4.16513 5.90909C4.16513 6.24053 4.24633 6.54214 4.40874 6.81392C4.57114 7.0857 4.78823 7.30279 5.06001 7.4652C5.33179 7.6276 5.6334 7.70881 5.96484 7.70881C6.34931 7.70881 6.67412 7.60109 6.93928 7.38565C7.20774 7.1669 7.37678 6.88684 7.44638 6.54545H8.6495C8.58653 6.98627 8.43241 7.38234 8.18715 7.73366C7.94188 8.08168 7.62701 8.35677 7.24254 8.55895C6.86139 8.76113 6.43549 8.86222 5.96484 8.86222C5.42128 8.86222 4.92578 8.72964 4.47834 8.46449C4.03089 8.19934 3.6746 7.84304 3.40945 7.3956C3.14429 6.94815 3.01172 6.45265 3.01172 5.90909ZM5.91513 11.1591C5.19259 11.1591 4.51314 11.0232 3.87678 10.7514C3.24373 10.4796 2.68525 10.1035 2.20135 9.62287C1.72076 9.13897 1.34292 8.58049 1.06783 7.94744C0.796046 7.31439 0.661813 6.63494 0.665128 5.90909C0.668442 5.18324 0.80599 4.50379 1.07777 3.87074C1.35286 3.23769 1.73071 2.68087 2.21129 2.20028C2.69188 1.71638 3.2487 1.33854 3.88175 1.06676C4.5148 0.794981 5.19259 0.659091 5.91513 0.659091C6.64098 0.659091 7.32043 0.794981 7.95348 1.06676C8.58984 1.33854 9.14666 1.71638 9.62394 2.20028C10.1045 2.68087 10.4807 3.23769 10.7525 3.87074C11.0243 4.50379 11.1618 5.18324 11.1651 5.90909C11.1684 6.63494 11.0342 7.31439 10.7624 7.94744C10.4906 8.58049 10.1145 9.13897 9.63388 9.62287C9.15329 10.1035 8.59482 10.4796 7.95845 10.7514C7.32209 11.0232 6.64098 11.1591 5.91513 11.1591ZM5.91513 10.0057C6.48189 10.0057 7.01385 9.89962 7.51101 9.6875C8.00817 9.47538 8.44401 9.18205 8.81854 8.80753C9.19306 8.433 9.48639 7.99882 9.69851 7.50497C9.91063 7.00781 10.015 6.47751 10.0117 5.91406C10.0084 5.3473 9.90069 4.81534 9.68857 4.31818C9.47644 3.82102 9.18312 3.38518 8.80859 3.01065C8.43407 2.63613 7.99988 2.3428 7.50604 2.13068C7.01219 1.91856 6.48189 1.8125 5.91513 1.8125C5.35168 1.8125 4.82304 1.91856 4.32919 2.13068C3.83535 2.3428 3.40116 2.63778 3.02663 3.01562C2.65211 3.39015 2.35713 3.82599 2.14169 4.32315C1.92957 4.817 1.82185 5.3473 1.81854 5.91406C1.81522 6.47419 1.91963 7.00284 2.13175 7.5C2.34387 7.99384 2.63719 8.42803 3.01172 8.80256C3.38956 9.17708 3.8254 9.47206 4.31925 9.6875C4.81641 9.89962 5.34837 10.0057 5.91513 10.0057ZM17.3137 11V10.1051L20.6745 6.42614C21.069 5.99526 21.3938 5.62074 21.649 5.30256C21.9042 4.98106 22.0931 4.67945 22.2157 4.39773C22.3417 4.11269 22.4047 3.81439 22.4047 3.50284C22.4047 3.14489 22.3185 2.83499 22.1461 2.57315C21.9771 2.31132 21.7451 2.10914 21.4501 1.96662C21.1551 1.8241 20.8237 1.75284 20.4558 1.75284C20.0647 1.75284 19.7233 1.83404 19.4316 1.99645C19.1433 2.15554 18.9196 2.37926 18.7605 2.66761C18.6047 2.95597 18.5268 3.29403 18.5268 3.68182H17.3535C17.3535 3.08523 17.4911 2.56155 17.7662 2.1108C18.0413 1.66004 18.4158 1.30871 18.8897 1.05682C19.367 0.804924 19.9023 0.678977 20.4956 0.678977C21.0922 0.678977 21.6208 0.804924 22.0815 1.05682C22.5422 1.30871 22.9035 1.64844 23.1653 2.07599C23.4271 2.50355 23.5581 2.97917 23.5581 3.50284C23.5581 3.87737 23.4901 4.24361 23.3542 4.60156C23.2217 4.9562 22.9896 5.35227 22.6582 5.78977C22.3301 6.22396 21.8743 6.75426 21.291 7.38068L19.0041 9.8267V9.90625H23.737V11H17.3137ZM29.1113 11.1392C28.3623 11.1392 27.7243 10.9354 27.1973 10.5277C26.6703 10.1167 26.2676 9.52178 25.9892 8.7429C25.7108 7.9607 25.5716 7.0161 25.5716 5.90909C25.5716 4.80871 25.7108 3.86908 25.9892 3.0902C26.2709 2.308 26.6752 1.71141 27.2022 1.30043C27.7325 0.886126 28.3689 0.678977 29.1113 0.678977C29.8538 0.678977 30.4885 0.886126 31.0154 1.30043C31.5458 1.71141 31.9501 2.308 32.2285 3.0902C32.5102 3.86908 32.6511 4.80871 32.6511 5.90909C32.6511 7.0161 32.5119 7.9607 32.2335 8.7429C31.9551 9.52178 31.5524 10.1167 31.0254 10.5277C30.4984 10.9354 29.8604 11.1392 29.1113 11.1392ZM29.1113 10.0455C29.8538 10.0455 30.4305 9.6875 30.8414 8.97159C31.2524 8.25568 31.4579 7.23485 31.4579 5.90909C31.4579 5.02746 31.3635 4.27675 31.1745 3.65696C30.9889 3.03717 30.7205 2.56487 30.3691 2.24006C30.0211 1.91525 29.6019 1.75284 29.1113 1.75284C28.3755 1.75284 27.8005 2.11577 27.3862 2.84162C26.9719 3.56416 26.7647 4.58665 26.7647 5.90909C26.7647 6.79072 26.8575 7.53977 27.0431 8.15625C27.2288 8.77273 27.4956 9.24171 27.8436 9.56321C28.1949 9.88471 28.6175 10.0455 29.1113 10.0455ZM34.5403 11V10.1051L37.9011 6.42614C38.2955 5.99526 38.6203 5.62074 38.8755 5.30256C39.1307 4.98106 39.3197 4.67945 39.4423 4.39773C39.5682 4.11269 39.6312 3.81439 39.6312 3.50284C39.6312 3.14489 39.545 2.83499 39.3727 2.57315C39.2037 2.31132 38.9717 2.10914 38.6767 1.96662C38.3817 1.8241 38.0502 1.75284 37.6824 1.75284C37.2913 1.75284 36.9499 1.83404 36.6582 1.99645C36.3699 2.15554 36.1461 2.37926 35.987 2.66761C35.8313 2.95597 35.7534 3.29403 35.7534 3.68182H34.5801C34.5801 3.08523 34.7176 2.56155 34.9927 2.1108C35.2678 1.66004 35.6423 1.30871 36.1163 1.05682C36.5936 0.804924 37.1288 0.678977 37.7221 0.678977C38.3187 0.678977 38.8474 0.804924 39.3081 1.05682C39.7688 1.30871 40.13 1.64844 40.3919 2.07599C40.6537 2.50355 40.7846 2.97917 40.7846 3.50284C40.7846 3.87737 40.7167 4.24361 40.5808 4.60156C40.4482 4.9562 40.2162 5.35227 39.8848 5.78977C39.5566 6.22396 39.1009 6.75426 38.5176 7.38068L36.2306 9.8267V9.90625H40.9636V11H34.5403ZM43.0169 11V10.1051L46.3777 6.42614C46.7721 5.99526 47.0969 5.62074 47.3521 5.30256C47.6073 4.98106 47.7962 4.67945 47.9189 4.39773C48.0448 4.11269 48.1078 3.81439 48.1078 3.50284C48.1078 3.14489 48.0216 2.83499 47.8493 2.57315C47.6802 2.31132 47.4482 2.10914 47.1532 1.96662C46.8583 1.8241 46.5268 1.75284 46.1589 1.75284C45.7678 1.75284 45.4264 1.83404 45.1348 1.99645C44.8464 2.15554 44.6227 2.37926 44.4636 2.66761C44.3078 2.95597 44.2299 3.29403 44.2299 3.68182H43.0566C43.0566 3.08523 43.1942 2.56155 43.4693 2.1108C43.7444 1.66004 44.1189 1.30871 44.5929 1.05682C45.0701 0.804924 45.6054 0.678977 46.1987 0.678977C46.7953 0.678977 47.3239 0.804924 47.7846 1.05682C48.2453 1.30871 48.6066 1.64844 48.8684 2.07599C49.1303 2.50355 49.2612 2.97917 49.2612 3.50284C49.2612 3.87737 49.1932 4.24361 49.0574 4.60156C48.9248 4.9562 48.6928 5.35227 48.3613 5.78977C48.0332 6.22396 47.5775 6.75426 46.9941 7.38068L44.7072 9.8267V9.90625H49.4402V11H43.0169ZM59.8258 5.36222V6.45597H55.3713V5.36222H59.8258ZM69.3675 1.91193V0.818182H77.0039V1.91193H73.8022V11H72.5692V1.91193H69.3675ZM80.7425 11.1591C80.0531 11.1591 79.4483 10.995 78.9279 10.6669C78.4109 10.3388 78.0065 9.87973 77.7148 9.28977C77.4265 8.69981 77.2823 8.01042 77.2823 7.22159C77.2823 6.42614 77.4265 5.73177 77.7148 5.13849C78.0065 4.54522 78.4109 4.08452 78.9279 3.75639C79.4483 3.42827 80.0531 3.2642 80.7425 3.2642C81.4319 3.2642 82.0352 3.42827 82.5522 3.75639C83.0726 4.08452 83.4769 4.54522 83.7653 5.13849C84.0569 5.73177 84.2028 6.42614 84.2028 7.22159C84.2028 8.01042 84.0569 8.69981 83.7653 9.28977C83.4769 9.87973 83.0726 10.3388 82.5522 10.6669C82.0352 10.995 81.4319 11.1591 80.7425 11.1591ZM80.7425 10.1051C81.2662 10.1051 81.6971 9.97088 82.0352 9.70241C82.3732 9.43395 82.6235 9.08097 82.7859 8.64347C82.9483 8.20597 83.0295 7.73201 83.0295 7.22159C83.0295 6.71117 82.9483 6.23556 82.7859 5.79474C82.6235 5.35393 82.3732 4.99763 82.0352 4.72585C81.6971 4.45407 81.2662 4.31818 80.7425 4.31818C80.2189 4.31818 79.788 4.45407 79.4499 4.72585C79.1119 4.99763 78.8616 5.35393 78.6992 5.79474C78.5368 6.23556 78.4556 6.71117 78.4556 7.22159C78.4556 7.73201 78.5368 8.20597 78.6992 8.64347C78.8616 9.08097 79.1119 9.43395 79.4499 9.70241C79.788 9.97088 80.2189 10.1051 80.7425 10.1051ZM88.8773 11.1591C88.2409 11.1591 87.6792 10.9983 87.1919 10.6768C86.7047 10.352 86.3236 9.89465 86.0485 9.30469C85.7734 8.71141 85.6358 8.01042 85.6358 7.2017C85.6358 6.39962 85.7734 5.7036 86.0485 5.11364C86.3236 4.52367 86.7064 4.06794 87.1969 3.74645C87.6874 3.42495 88.2542 3.2642 88.8972 3.2642C89.3944 3.2642 89.7871 3.34706 90.0755 3.51278C90.3671 3.67519 90.5892 3.8608 90.7417 4.0696C90.8974 4.27509 91.0184 4.44413 91.1046 4.5767H91.204V0.818182H92.3773V11H91.2438V9.8267H91.1046C91.0184 9.96591 90.8958 10.1416 90.7367 10.3537C90.5776 10.5625 90.3506 10.7498 90.0556 10.9155C89.7606 11.0779 89.3678 11.1591 88.8773 11.1591ZM89.0364 10.1051C89.507 10.1051 89.9048 9.98248 90.2296 9.73722C90.5544 9.48864 90.8013 9.1456 90.9703 8.7081C91.1394 8.26728 91.2239 7.75852 91.2239 7.18182C91.2239 6.61174 91.141 6.11293 90.9753 5.68537C90.8096 5.2545 90.5643 4.91974 90.2395 4.68111C89.9147 4.43916 89.5137 4.31818 89.0364 4.31818C88.5392 4.31818 88.1249 4.44579 87.7935 4.70099C87.4654 4.95289 87.2185 5.29593 87.0527 5.73011C86.8903 6.16098 86.8091 6.64489 86.8091 7.18182C86.8091 7.72538 86.892 8.21922 87.0577 8.66335C87.2267 9.10417 87.4753 9.45549 87.8034 9.71733C88.1349 9.97585 88.5459 10.1051 89.0364 10.1051ZM97.7914 11.1591C97.102 11.1591 96.4971 10.995 95.9767 10.6669C95.4597 10.3388 95.0553 9.87973 94.7637 9.28977C94.4753 8.69981 94.3311 8.01042 94.3311 7.22159C94.3311 6.42614 94.4753 5.73177 94.7637 5.13849C95.0553 4.54522 95.4597 4.08452 95.9767 3.75639C96.4971 3.42827 97.102 3.2642 97.7914 3.2642C98.4808 3.2642 99.084 3.42827 99.601 3.75639C100.121 4.08452 100.526 4.54522 100.814 5.13849C101.106 5.73177 101.252 6.42614 101.252 7.22159C101.252 8.01042 101.106 8.69981 100.814 9.28977C100.526 9.87973 100.121 10.3388 99.601 10.6669C99.084 10.995 98.4808 11.1591 97.7914 11.1591ZM97.7914 10.1051C98.315 10.1051 98.7459 9.97088 99.084 9.70241C99.4221 9.43395 99.6723 9.08097 99.8347 8.64347C99.9971 8.20597 100.078 7.73201 100.078 7.22159C100.078 6.71117 99.9971 6.23556 99.8347 5.79474C99.6723 5.35393 99.4221 4.99763 99.084 4.72585C98.7459 4.45407 98.315 4.31818 97.7914 4.31818C97.2677 4.31818 96.8368 4.45407 96.4988 4.72585C96.1607 4.99763 95.9105 5.35393 95.748 5.79474C95.5856 6.23556 95.5044 6.71117 95.5044 7.22159C95.5044 7.73201 95.5856 8.20597 95.748 8.64347C95.9105 9.08097 96.1607 9.43395 96.4988 9.70241C96.8368 9.97088 97.2677 10.1051 97.7914 10.1051ZM108.452 5.07386L107.398 5.37216C107.331 5.1965 107.234 5.0258 107.104 4.86009C106.978 4.69105 106.806 4.55185 106.587 4.44247C106.369 4.3331 106.089 4.27841 105.747 4.27841C105.28 4.27841 104.89 4.38613 104.579 4.60156C104.271 4.81368 104.116 5.08381 104.116 5.41193C104.116 5.7036 104.223 5.93395 104.435 6.10298C104.647 6.27202 104.978 6.41288 105.429 6.52557L106.562 6.80398C107.245 6.9697 107.754 7.22325 108.089 7.56463C108.424 7.9027 108.591 8.33854 108.591 8.87216C108.591 9.30966 108.465 9.70076 108.213 10.0455C107.964 10.3902 107.616 10.6619 107.169 10.8608C106.722 11.0597 106.201 11.1591 105.608 11.1591C104.829 11.1591 104.184 10.9901 103.674 10.652C103.164 10.3139 102.84 9.82008 102.705 9.17045L103.818 8.89205C103.924 9.30303 104.125 9.61127 104.42 9.81676C104.718 10.0223 105.107 10.125 105.588 10.125C106.135 10.125 106.569 10.009 106.891 9.77699C107.215 9.54167 107.378 9.25994 107.378 8.93182C107.378 8.66667 107.285 8.4446 107.099 8.26562C106.914 8.08333 106.629 7.94744 106.244 7.85795L104.972 7.55966C104.272 7.39394 103.759 7.13707 103.43 6.78906C103.106 6.43774 102.943 5.99858 102.943 5.47159C102.943 5.04072 103.064 4.65956 103.306 4.32812C103.551 3.99669 103.884 3.73651 104.305 3.54758C104.73 3.35866 105.21 3.2642 105.747 3.2642C106.503 3.2642 107.096 3.42992 107.527 3.76136C107.961 4.0928 108.269 4.5303 108.452 5.07386ZM117.397 11.1591C116.707 11.1591 116.103 10.995 115.582 10.6669C115.065 10.3388 114.661 9.87973 114.369 9.28977C114.081 8.69981 113.937 8.01042 113.937 7.22159C113.937 6.42614 114.081 5.73177 114.369 5.13849C114.661 4.54522 115.065 4.08452 115.582 3.75639C116.103 3.42827 116.707 3.2642 117.397 3.2642C118.086 3.2642 118.689 3.42827 119.206 3.75639C119.727 4.08452 120.131 4.54522 120.42 5.13849C120.711 5.73177 120.857 6.42614 120.857 7.22159C120.857 8.01042 120.711 8.69981 120.42 9.28977C120.131 9.87973 119.727 10.3388 119.206 10.6669C118.689 10.995 118.086 11.1591 117.397 11.1591ZM117.397 10.1051C117.921 10.1051 118.351 9.97088 118.689 9.70241C119.028 9.43395 119.278 9.08097 119.44 8.64347C119.603 8.20597 119.684 7.73201 119.684 7.22159C119.684 6.71117 119.603 6.23556 119.44 5.79474C119.278 5.35393 119.028 4.99763 118.689 4.72585C118.351 4.45407 117.921 4.31818 117.397 4.31818C116.873 4.31818 116.442 4.45407 116.104 4.72585C115.766 4.99763 115.516 5.35393 115.354 5.79474C115.191 6.23556 115.11 6.71117 115.11 7.22159C115.11 7.73201 115.191 8.20597 115.354 8.64347C115.516 9.08097 115.766 9.43395 116.104 9.70241C116.442 9.97088 116.873 10.1051 117.397 10.1051ZM128.057 5.07386L127.003 5.37216C126.937 5.1965 126.839 5.0258 126.71 4.86009C126.584 4.69105 126.412 4.55185 126.193 4.44247C125.974 4.3331 125.694 4.27841 125.353 4.27841C124.885 4.27841 124.496 4.38613 124.184 4.60156C123.876 4.81368 123.722 5.08381 123.722 5.41193C123.722 5.7036 123.828 5.93395 124.04 6.10298C124.252 6.27202 124.584 6.41288 125.034 6.52557L126.168 6.80398C126.851 6.9697 127.359 7.22325 127.694 7.56463C128.029 7.9027 128.196 8.33854 128.196 8.87216C128.196 9.30966 128.07 9.70076 127.819 10.0455C127.57 10.3902 127.222 10.6619 126.775 10.8608C126.327 11.0597 125.807 11.1591 125.213 11.1591C124.435 11.1591 123.79 10.9901 123.279 10.652C122.769 10.3139 122.446 9.82008 122.31 9.17045L123.424 8.89205C123.53 9.30303 123.73 9.61127 124.025 9.81676C124.324 10.0223 124.713 10.125 125.194 10.125C125.74 10.125 126.175 10.009 126.496 9.77699C126.821 9.54167 126.983 9.25994 126.983 8.93182C126.983 8.66667 126.891 8.4446 126.705 8.26562C126.519 8.08333 126.234 7.94744 125.85 7.85795L124.577 7.55966C123.878 7.39394 123.364 7.13707 123.036 6.78906C122.711 6.43774 122.549 5.99858 122.549 5.47159C122.549 5.04072 122.67 4.65956 122.912 4.32812C123.157 3.99669 123.49 3.73651 123.911 3.54758C124.335 3.35866 124.816 3.2642 125.353 3.2642C126.108 3.2642 126.702 3.42992 127.132 3.76136C127.567 4.0928 127.875 4.5303 128.057 5.07386ZM136.784 11.1591C136.147 11.1591 135.585 10.9983 135.098 10.6768C134.611 10.352 134.23 9.89465 133.955 9.30469C133.68 8.71141 133.542 8.01042 133.542 7.2017C133.542 6.39962 133.68 5.7036 133.955 5.11364C134.23 4.52367 134.613 4.06794 135.103 3.74645C135.594 3.42495 136.16 3.2642 136.803 3.2642C137.301 3.2642 137.693 3.34706 137.982 3.51278C138.273 3.67519 138.495 3.8608 138.648 4.0696C138.804 4.27509 138.925 4.44413 139.011 4.5767H139.11V0.818182H140.284V11H139.15V9.8267H139.011C138.925 9.96591 138.802 10.1416 138.643 10.3537C138.484 10.5625 138.257 10.7498 137.962 10.9155C137.667 11.0779 137.274 11.1591 136.784 11.1591ZM136.943 10.1051C137.413 10.1051 137.811 9.98248 138.136 9.73722C138.461 9.48864 138.708 9.1456 138.877 8.7081C139.046 8.26728 139.13 7.75852 139.13 7.18182C139.13 6.61174 139.047 6.11293 138.882 5.68537C138.716 5.2545 138.471 4.91974 138.146 4.68111C137.821 4.43916 137.42 4.31818 136.943 4.31818C136.445 4.31818 136.031 4.44579 135.7 4.70099C135.372 4.95289 135.125 5.29593 134.959 5.73011C134.797 6.16098 134.715 6.64489 134.715 7.18182C134.715 7.72538 134.798 8.21922 134.964 8.66335C135.133 9.10417 135.382 9.45549 135.71 9.71733C136.041 9.97585 136.452 10.1051 136.943 10.1051ZM142.595 11V3.36364H143.769V11H142.595ZM143.192 2.09091C142.963 2.09091 142.766 2.01302 142.6 1.85724C142.438 1.70147 142.357 1.5142 142.357 1.29545C142.357 1.0767 142.438 0.889441 142.6 0.733664C142.766 0.577888 142.963 0.5 143.192 0.5C143.421 0.5 143.616 0.577888 143.779 0.733664C143.944 0.889441 144.027 1.0767 144.027 1.29545C144.027 1.5142 143.944 1.70147 143.779 1.85724C143.616 2.01302 143.421 2.09091 143.192 2.09091ZM145.918 11V3.36364H147.051V4.51705H147.131C147.27 4.1392 147.522 3.83262 147.886 3.5973C148.251 3.36198 148.662 3.24432 149.119 3.24432C149.205 3.24432 149.313 3.24597 149.442 3.24929C149.572 3.2526 149.67 3.25758 149.736 3.2642V4.45739C149.696 4.44744 149.605 4.43253 149.462 4.41264C149.323 4.38944 149.176 4.37784 149.02 4.37784C148.649 4.37784 148.317 4.45573 148.026 4.61151C147.737 4.76397 147.509 4.97609 147.339 5.24787C147.174 5.51634 147.091 5.82292 147.091 6.16761V11H145.918ZM154.096 11.1591C153.36 11.1591 152.725 10.9967 152.192 10.6719C151.661 10.3438 151.252 9.88636 150.964 9.29972C150.679 8.70975 150.536 8.02367 150.536 7.24148C150.536 6.45928 150.679 5.76989 150.964 5.1733C151.252 4.57339 151.653 4.10606 152.167 3.77131C152.684 3.43324 153.287 3.2642 153.977 3.2642C154.374 3.2642 154.767 3.33049 155.155 3.46307C155.543 3.59564 155.896 3.81108 156.214 4.10938C156.532 4.40436 156.786 4.79545 156.974 5.28267C157.163 5.76989 157.258 6.36979 157.258 7.08239V7.57955H151.371V6.56534H156.065C156.065 6.13447 155.978 5.75 155.806 5.41193C155.637 5.07386 155.395 4.80705 155.08 4.61151C154.769 4.41596 154.401 4.31818 153.977 4.31818C153.509 4.31818 153.105 4.43419 152.763 4.66619C152.425 4.89489 152.165 5.19318 151.983 5.56108C151.801 5.92898 151.71 6.32339 151.71 6.74432V7.42045C151.71 7.99716 151.809 8.48603 152.008 8.88707C152.21 9.2848 152.49 9.58807 152.848 9.79688C153.206 10.0024 153.622 10.1051 154.096 10.1051C154.404 10.1051 154.683 10.062 154.931 9.97585C155.183 9.88636 155.4 9.75379 155.582 9.57812C155.765 9.39915 155.906 9.17708 156.005 8.91193L157.138 9.23011C157.019 9.61458 156.819 9.95265 156.537 10.2443C156.255 10.5327 155.907 10.758 155.493 10.9205C155.079 11.0795 154.613 11.1591 154.096 11.1591ZM159.043 11V3.36364H160.216V11H159.043ZM159.639 2.09091C159.411 2.09091 159.213 2.01302 159.048 1.85724C158.885 1.70147 158.804 1.5142 158.804 1.29545C158.804 1.0767 158.885 0.889441 159.048 0.733664C159.213 0.577888 159.411 0.5 159.639 0.5C159.868 0.5 160.063 0.577888 160.226 0.733664C160.392 0.889441 160.474 1.0767 160.474 1.29545C160.474 1.5142 160.392 1.70147 160.226 1.85724C160.063 2.01302 159.868 2.09091 159.639 2.09091ZM165.686 3.36364V4.35795H161.729V3.36364H165.686ZM162.882 1.53409H164.055V8.8125C164.055 9.14394 164.103 9.39252 164.199 9.55824C164.299 9.72064 164.425 9.83002 164.577 9.88636C164.733 9.93939 164.897 9.96591 165.069 9.96591C165.199 9.96591 165.305 9.95928 165.388 9.94602C165.47 9.92945 165.537 9.91619 165.586 9.90625L165.825 10.9602C165.746 10.9901 165.635 11.0199 165.492 11.0497C165.349 11.0829 165.169 11.0994 164.95 11.0994C164.619 11.0994 164.294 11.0282 163.976 10.8857C163.661 10.7431 163.399 10.526 163.19 10.2344C162.985 9.94271 162.882 9.57481 162.882 9.13068V1.53409ZM170.471 11.1591C169.782 11.1591 169.177 10.995 168.656 10.6669C168.139 10.3388 167.735 9.87973 167.443 9.28977C167.155 8.69981 167.011 8.01042 167.011 7.22159C167.011 6.42614 167.155 5.73177 167.443 5.13849C167.735 4.54522 168.139 4.08452 168.656 3.75639C169.177 3.42827 169.782 3.2642 170.471 3.2642C171.16 3.2642 171.764 3.42827 172.281 3.75639C172.801 4.08452 173.205 4.54522 173.494 5.13849C173.785 5.73177 173.931 6.42614 173.931 7.22159C173.931 8.01042 173.785 8.69981 173.494 9.28977C173.205 9.87973 172.801 10.3388 172.281 10.6669C171.764 10.995 171.16 11.1591 170.471 11.1591ZM170.471 10.1051C170.995 10.1051 171.426 9.97088 171.764 9.70241C172.102 9.43395 172.352 9.08097 172.514 8.64347C172.677 8.20597 172.758 7.73201 172.758 7.22159C172.758 6.71117 172.677 6.23556 172.514 5.79474C172.352 5.35393 172.102 4.99763 171.764 4.72585C171.426 4.45407 170.995 4.31818 170.471 4.31818C169.947 4.31818 169.517 4.45407 169.178 4.72585C168.84 4.99763 168.59 5.35393 168.428 5.79474C168.265 6.23556 168.184 6.71117 168.184 7.22159C168.184 7.73201 168.265 8.20597 168.428 8.64347C168.59 9.08097 168.84 9.43395 169.178 9.70241C169.517 9.97088 169.947 10.1051 170.471 10.1051ZM181.131 5.07386L180.077 5.37216C180.011 5.1965 179.913 5.0258 179.784 4.86009C179.658 4.69105 179.486 4.55185 179.267 4.44247C179.048 4.3331 178.768 4.27841 178.427 4.27841C177.96 4.27841 177.57 4.38613 177.259 4.60156C176.95 4.81368 176.796 5.08381 176.796 5.41193C176.796 5.7036 176.902 5.93395 177.114 6.10298C177.326 6.27202 177.658 6.41288 178.109 6.52557L179.242 6.80398C179.925 6.9697 180.434 7.22325 180.768 7.56463C181.103 7.9027 181.271 8.33854 181.271 8.87216C181.271 9.30966 181.145 9.70076 180.893 10.0455C180.644 10.3902 180.296 10.6619 179.849 10.8608C179.401 11.0597 178.881 11.1591 178.288 11.1591C177.509 11.1591 176.864 10.9901 176.354 10.652C175.843 10.3139 175.52 9.82008 175.384 9.17045L176.498 8.89205C176.604 9.30303 176.804 9.61127 177.099 9.81676C177.398 10.0223 177.787 10.125 178.268 10.125C178.815 10.125 179.249 10.009 179.57 9.77699C179.895 9.54167 180.058 9.25994 180.058 8.93182C180.058 8.66667 179.965 8.4446 179.779 8.26562C179.594 8.08333 179.308 7.94744 178.924 7.85795L177.651 7.55966C176.952 7.39394 176.438 7.13707 176.11 6.78906C175.785 6.43774 175.623 5.99858 175.623 5.47159C175.623 5.04072 175.744 4.65956 175.986 4.32812C176.231 3.99669 176.564 3.73651 176.985 3.54758C177.409 3.35866 177.89 3.2642 178.427 3.2642C179.183 3.2642 179.776 3.42992 180.207 3.76136C180.641 4.0928 180.949 4.5303 181.131 5.07386ZM186.974 11V3.36364H188.108V4.51705H188.187C188.327 4.1392 188.578 3.83262 188.943 3.5973C189.308 3.36198 189.719 3.24432 190.176 3.24432C190.262 3.24432 190.37 3.24597 190.499 3.24929C190.628 3.2526 190.726 3.25758 190.792 3.2642V4.45739C190.753 4.44744 190.662 4.43253 190.519 4.41264C190.38 4.38944 190.232 4.37784 190.077 4.37784C189.705 4.37784 189.374 4.45573 189.082 4.61151C188.794 4.76397 188.565 4.97609 188.396 5.24787C188.23 5.51634 188.148 5.82292 188.148 6.16761V11H186.974ZM195.153 11.1591C194.417 11.1591 193.782 10.9967 193.248 10.6719C192.718 10.3438 192.309 9.88636 192.02 9.29972C191.735 8.70975 191.593 8.02367 191.593 7.24148C191.593 6.45928 191.735 5.76989 192.02 5.1733C192.309 4.57339 192.71 4.10606 193.224 3.77131C193.741 3.43324 194.344 3.2642 195.033 3.2642C195.431 3.2642 195.824 3.33049 196.211 3.46307C196.599 3.59564 196.952 3.81108 197.27 4.10938C197.589 4.40436 197.842 4.79545 198.031 5.28267C198.22 5.76989 198.314 6.36979 198.314 7.08239V7.57955H192.428V6.56534H197.121C197.121 6.13447 197.035 5.75 196.863 5.41193C196.694 5.07386 196.452 4.80705 196.137 4.61151C195.825 4.41596 195.457 4.31818 195.033 4.31818C194.566 4.31818 194.162 4.43419 193.82 4.66619C193.482 4.89489 193.222 5.19318 193.04 5.56108C192.857 5.92898 192.766 6.32339 192.766 6.74432V7.42045C192.766 7.99716 192.866 8.48603 193.064 8.88707C193.267 9.2848 193.547 9.58807 193.905 9.79688C194.263 10.0024 194.679 10.1051 195.153 10.1051C195.461 10.1051 195.739 10.062 195.988 9.97585C196.24 9.88636 196.457 9.75379 196.639 9.57812C196.821 9.39915 196.962 9.17708 197.062 8.91193L198.195 9.23011C198.076 9.61458 197.875 9.95265 197.594 10.2443C197.312 10.5327 196.964 10.758 196.55 10.9205C196.135 11.0795 195.67 11.1591 195.153 11.1591ZM205.508 5.07386L204.454 5.37216C204.388 5.1965 204.29 5.0258 204.161 4.86009C204.035 4.69105 203.863 4.55185 203.644 4.44247C203.425 4.3331 203.145 4.27841 202.804 4.27841C202.336 4.27841 201.947 4.38613 201.635 4.60156C201.327 4.81368 201.173 5.08381 201.173 5.41193C201.173 5.7036 201.279 5.93395 201.491 6.10298C201.703 6.27202 202.035 6.41288 202.486 6.52557L203.619 6.80398C204.302 6.9697 204.811 7.22325 205.145 7.56463C205.48 7.9027 205.648 8.33854 205.648 8.87216C205.648 9.30966 205.522 9.70076 205.27 10.0455C205.021 10.3902 204.673 10.6619 204.226 10.8608C203.778 11.0597 203.258 11.1591 202.665 11.1591C201.886 11.1591 201.241 10.9901 200.731 10.652C200.22 10.3139 199.897 9.82008 199.761 9.17045L200.875 8.89205C200.981 9.30303 201.181 9.61127 201.476 9.81676C201.775 10.0223 202.164 10.125 202.645 10.125C203.192 10.125 203.626 10.009 203.947 9.77699C204.272 9.54167 204.434 9.25994 204.434 8.93182C204.434 8.66667 204.342 8.4446 204.156 8.26562C203.97 8.08333 203.685 7.94744 203.301 7.85795L202.028 7.55966C201.329 7.39394 200.815 7.13707 200.487 6.78906C200.162 6.43774 200 5.99858 200 5.47159C200 5.04072 200.121 4.65956 200.363 4.32812C200.608 3.99669 200.941 3.73651 201.362 3.54758C201.786 3.35866 202.267 3.2642 202.804 3.2642C203.559 3.2642 204.153 3.42992 204.584 3.76136C205.018 4.0928 205.326 4.5303 205.508 5.07386ZM210.615 11.1591C209.88 11.1591 209.245 10.9967 208.711 10.6719C208.181 10.3438 207.772 9.88636 207.483 9.29972C207.198 8.70975 207.056 8.02367 207.056 7.24148C207.056 6.45928 207.198 5.76989 207.483 5.1733C207.772 4.57339 208.173 4.10606 208.686 3.77131C209.203 3.43324 209.807 3.2642 210.496 3.2642C210.894 3.2642 211.287 3.33049 211.674 3.46307C212.062 3.59564 212.415 3.81108 212.733 4.10938C213.051 4.40436 213.305 4.79545 213.494 5.28267C213.683 5.76989 213.777 6.36979 213.777 7.08239V7.57955H207.891V6.56534H212.584C212.584 6.13447 212.498 5.75 212.326 5.41193C212.157 5.07386 211.915 4.80705 211.6 4.61151C211.288 4.41596 210.92 4.31818 210.496 4.31818C210.029 4.31818 209.624 4.43419 209.283 4.66619C208.945 4.89489 208.685 5.19318 208.502 5.56108C208.32 5.92898 208.229 6.32339 208.229 6.74432V7.42045C208.229 7.99716 208.328 8.48603 208.527 8.88707C208.73 9.2848 209.01 9.58807 209.368 9.79688C209.725 10.0024 210.141 10.1051 210.615 10.1051C210.924 10.1051 211.202 10.062 211.451 9.97585C211.703 9.88636 211.92 9.75379 212.102 9.57812C212.284 9.39915 212.425 9.17708 212.525 8.91193L213.658 9.23011C213.539 9.61458 213.338 9.95265 213.056 10.2443C212.775 10.5327 212.427 10.758 212.012 10.9205C211.598 11.0795 211.132 11.1591 210.615 11.1591ZM215.562 11V3.36364H216.696V4.51705H216.775C216.914 4.1392 217.166 3.83262 217.531 3.5973C217.895 3.36198 218.306 3.24432 218.764 3.24432C218.85 3.24432 218.958 3.24597 219.087 3.24929C219.216 3.2526 219.314 3.25758 219.38 3.2642V4.45739C219.341 4.44744 219.249 4.43253 219.107 4.41264C218.968 4.38944 218.82 4.37784 218.664 4.37784C218.293 4.37784 217.962 4.45573 217.67 4.61151C217.382 4.76397 217.153 4.97609 216.984 5.24787C216.818 5.51634 216.735 5.82292 216.735 6.16761V11H215.562ZM227.248 3.36364L224.424 11H223.231L220.407 3.36364H221.68L223.788 9.44886H223.867L225.975 3.36364H227.248ZM230.811 11.179C230.327 11.179 229.888 11.0878 229.494 10.9055C229.099 10.7199 228.786 10.4531 228.554 10.1051C228.322 9.75379 228.206 9.32955 228.206 8.83239C228.206 8.39489 228.292 8.04025 228.465 7.76847C228.637 7.49337 228.867 7.27794 229.156 7.12216C229.444 6.96638 229.762 6.85038 230.11 6.77415C230.462 6.6946 230.815 6.63163 231.169 6.58523C231.633 6.52557 232.009 6.48082 232.298 6.45099C232.589 6.41785 232.802 6.36316 232.934 6.28693C233.07 6.2107 233.138 6.07812 233.138 5.8892V5.84943C233.138 5.3589 233.004 4.97775 232.735 4.70597C232.47 4.43419 232.067 4.2983 231.527 4.2983C230.967 4.2983 230.528 4.42093 230.21 4.66619C229.892 4.91146 229.668 5.1733 229.539 5.4517L228.425 5.05398C228.624 4.58996 228.889 4.22869 229.22 3.97017C229.555 3.70833 229.92 3.52604 230.314 3.4233C230.712 3.31723 231.103 3.2642 231.487 3.2642C231.733 3.2642 232.014 3.29403 232.333 3.35369C232.654 3.41004 232.964 3.5277 233.262 3.70668C233.564 3.88565 233.814 4.15578 234.013 4.51705C234.212 4.87831 234.311 5.36222 234.311 5.96875V11H233.138V9.96591H233.078C232.999 10.1316 232.866 10.3089 232.681 10.4979C232.495 10.6868 232.248 10.8475 231.94 10.9801C231.632 11.1127 231.255 11.179 230.811 11.179ZM230.99 10.125C231.454 10.125 231.845 10.0339 232.164 9.85156C232.485 9.66927 232.727 9.43395 232.889 9.1456C233.055 8.85724 233.138 8.55398 233.138 8.2358V7.16193C233.088 7.22159 232.979 7.27628 232.81 7.32599C232.644 7.3724 232.452 7.41383 232.233 7.45028C232.018 7.48343 231.807 7.51326 231.602 7.53977C231.4 7.56297 231.235 7.58286 231.11 7.59943C230.805 7.6392 230.52 7.70384 230.254 7.79332C229.993 7.8795 229.78 8.01042 229.618 8.18608C229.459 8.35843 229.379 8.59375 229.379 8.89205C229.379 9.29972 229.53 9.60795 229.832 9.81676C230.137 10.0223 230.523 10.125 230.99 10.125ZM239.336 11.1591C238.7 11.1591 238.138 10.9983 237.651 10.6768C237.164 10.352 236.783 9.89465 236.507 9.30469C236.232 8.71141 236.095 8.01042 236.095 7.2017C236.095 6.39962 236.232 5.7036 236.507 5.11364C236.783 4.52367 237.165 4.06794 237.656 3.74645C238.146 3.42495 238.713 3.2642 239.356 3.2642C239.853 3.2642 240.246 3.34706 240.534 3.51278C240.826 3.67519 241.048 3.8608 241.201 4.0696C241.356 4.27509 241.477 4.44413 241.564 4.5767H241.663V0.818182H242.836V11H241.703V9.8267H241.564C241.477 9.96591 241.355 10.1416 241.196 10.3537C241.037 10.5625 240.81 10.7498 240.515 10.9155C240.22 11.0779 239.827 11.1591 239.336 11.1591ZM239.495 10.1051C239.966 10.1051 240.364 9.98248 240.689 9.73722C241.013 9.48864 241.26 9.1456 241.429 8.7081C241.598 8.26728 241.683 7.75852 241.683 7.18182C241.683 6.61174 241.6 6.11293 241.434 5.68537C241.269 5.2545 241.023 4.91974 240.699 4.68111C240.374 4.43916 239.973 4.31818 239.495 4.31818C238.998 4.31818 238.584 4.44579 238.252 4.70099C237.924 4.95289 237.677 5.29593 237.512 5.73011C237.349 6.16098 237.268 6.64489 237.268 7.18182C237.268 7.72538 237.351 8.21922 237.517 8.66335C237.686 9.10417 237.934 9.45549 238.262 9.71733C238.594 9.97585 239.005 10.1051 239.495 10.1051ZM248.25 11.1591C247.561 11.1591 246.956 10.995 246.436 10.6669C245.919 10.3388 245.514 9.87973 245.223 9.28977C244.934 8.69981 244.79 8.01042 244.79 7.22159C244.79 6.42614 244.934 5.73177 245.223 5.13849C245.514 4.54522 245.919 4.08452 246.436 3.75639C246.956 3.42827 247.561 3.2642 248.25 3.2642C248.94 3.2642 249.543 3.42827 250.06 3.75639C250.58 4.08452 250.985 4.54522 251.273 5.13849C251.565 5.73177 251.711 6.42614 251.711 7.22159C251.711 8.01042 251.565 8.69981 251.273 9.28977C250.985 9.87973 250.58 10.3388 250.06 10.6669C249.543 10.995 248.94 11.1591 248.25 11.1591ZM248.25 10.1051C248.774 10.1051 249.205 9.97088 249.543 9.70241C249.881 9.43395 250.131 9.08097 250.294 8.64347C250.456 8.20597 250.537 7.73201 250.537 7.22159C250.537 6.71117 250.456 6.23556 250.294 5.79474C250.131 5.35393 249.881 4.99763 249.543 4.72585C249.205 4.45407 248.774 4.31818 248.25 4.31818C247.727 4.31818 247.296 4.45407 246.958 4.72585C246.62 4.99763 246.369 5.35393 246.207 5.79474C246.045 6.23556 245.963 6.71117 245.963 7.22159C245.963 7.73201 246.045 8.20597 246.207 8.64347C246.369 9.08097 246.62 9.43395 246.958 9.70241C247.296 9.97088 247.727 10.1051 248.25 10.1051ZM258.911 5.07386L257.857 5.37216C257.79 5.1965 257.693 5.0258 257.563 4.86009C257.437 4.69105 257.265 4.55185 257.046 4.44247C256.828 4.3331 256.548 4.27841 256.206 4.27841C255.739 4.27841 255.349 4.38613 255.038 4.60156C254.73 4.81368 254.575 5.08381 254.575 5.41193C254.575 5.7036 254.682 5.93395 254.894 6.10298C255.106 6.27202 255.437 6.41288 255.888 6.52557L257.021 6.80398C257.704 6.9697 258.213 7.22325 258.548 7.56463C258.883 7.9027 259.05 8.33854 259.05 8.87216C259.05 9.30966 258.924 9.70076 258.672 10.0455C258.423 10.3902 258.075 10.6619 257.628 10.8608C257.181 11.0597 256.66 11.1591 256.067 11.1591C255.288 11.1591 254.643 10.9901 254.133 10.652C253.623 10.3139 253.299 9.82008 253.164 9.17045L254.277 8.89205C254.383 9.30303 254.584 9.61127 254.879 9.81676C255.177 10.0223 255.566 10.125 256.047 10.125C256.594 10.125 257.028 10.009 257.35 9.77699C257.674 9.54167 257.837 9.25994 257.837 8.93182C257.837 8.66667 257.744 8.4446 257.558 8.26562C257.373 8.08333 257.088 7.94744 256.703 7.85795L255.431 7.55966C254.731 7.39394 254.218 7.13707 253.889 6.78906C253.565 6.43774 253.402 5.99858 253.402 5.47159C253.402 5.04072 253.523 4.65956 253.765 4.32812C254.01 3.99669 254.343 3.73651 254.764 3.54758C255.189 3.35866 255.669 3.2642 256.206 3.2642C256.962 3.2642 257.555 3.42992 257.986 3.76136C258.42 4.0928 258.728 4.5303 258.911 5.07386ZM261.671 11.0795C261.426 11.0795 261.215 10.9917 261.04 10.8161C260.864 10.6404 260.776 10.4299 260.776 10.1847C260.776 9.93939 260.864 9.72893 261.04 9.55327C261.215 9.3776 261.426 9.28977 261.671 9.28977C261.916 9.28977 262.127 9.3776 262.303 9.55327C262.478 9.72893 262.566 9.93939 262.566 10.1847C262.566 10.3471 262.525 10.4962 262.442 10.6321C262.362 10.768 262.254 10.8774 262.119 10.9602C261.986 11.0398 261.837 11.0795 261.671 11.0795Z" fill="white"/>
</svg>
